# xmcd
#
# Track frame offsets: 
#        150
#        17597
#        37323
#        59457
#        77670
#        108120
#        126106
#        146188
#        168130
#        194701
#        211145
#        233970
#        252283
#        279975
#
# Disc length: 4051 seconds
#
# Revision: 0
# Processed by: cddbd v1.5.2PL0 Copyright (c) Steve Scherf et al.
# Submitted via: ExactAudioCopy v0.99pb5
#
DISCID=c70fd10e
DTITLE=Taylor Swift - Speak Now
DYEAR=2010
DGENRE=Country
TTITLE0=Mine
TTITLE1=Sparks Fly
TTITLE2=Back To December
TTITLE3=Speak Now
TTITLE4=Dear John
TTITLE5=Mean
TTITLE6=The Story Of Us
TTITLE7=Never Grow Up
TTITLE8=Enchanted
TTITLE9=Better Than Revenge
TTITLE10=Innocent
TTITLE11=Haunted
TTITLE12=Last Kiss
TTITLE13=Long Live
EXTD=
EXTT0=
EXTT1=
EXTT2=
EXTT3=
EXTT4=
EXTT5=
EXTT6=
EXTT7=
EXTT8=
EXTT9=
EXTT10=
EXTT11=
EXTT12=
EXTT13=
PLAYORDER=
